<svg width="143" height="17" viewBox="0 0 143 17" fill="none" xmlns="http://www.w3.org/2000/svg">
<path d="M98.1472 0.138759C98.1472 5.6796 98.1472 11.2207 98.1472 16.7622C96.9978 16.7622 95.849 16.7622 94.6998 16.7622C94.6998 11.2207 94.6998 5.6796 94.6998 0.138759C95.8487 0.138759 96.9978 0.138759 98.1472 0.138759ZM11.6542 0C12.2863 0 12.8588 0.276329 13.2732 0.722318C13.6876 1.1686 13.9439 1.78514 13.9439 2.46587C13.9439 3.14659 13.6876 3.76313 13.2732 4.20941C12.8591 4.6554 12.2863 4.93173 11.6542 4.93173C11.0221 4.93173 10.4496 4.6557 10.0352 4.20941C9.62079 3.76313 9.36448 3.14659 9.36448 2.46587C9.36448 1.78514 9.62079 1.1686 10.0352 0.722318C10.4496 0.276329 11.0221 0 11.6542 0ZM2.28973 10.0848C2.9221 10.0848 3.49433 10.3606 3.90874 10.8068C4.32287 11.2531 4.57946 11.87 4.57946 12.5507C4.57946 13.2314 4.32315 13.8476 3.90874 14.2939C3.49433 14.7402 2.92183 15.0166 2.28973 15.0166C1.65763 15.0166 1.08513 14.7402 0.670724 14.2939C0.256591 13.8476 0 13.2314 0 12.5507C0 11.87 0.256591 11.2531 0.670724 10.8068C1.08513 10.3606 1.65763 10.0848 2.28973 10.0848ZM2.28973 0C2.9221 0 3.49433 0.276329 3.90874 0.722318C4.32287 1.1686 4.57946 1.78514 4.57946 2.46587C4.57946 3.14659 4.32315 3.76313 3.90874 4.20941C3.49433 4.6554 2.92183 4.93173 2.28973 4.93173C1.65763 4.93173 1.08513 4.6557 0.670724 4.20941C0.256591 3.76313 0 3.14659 0 2.46587C0 1.78514 0.256591 1.1686 0.670724 0.722318C1.08513 0.276329 1.65763 0 2.28973 0ZM11.6542 10.0848C12.2863 10.0848 12.8588 10.3606 13.2732 10.8068C13.6876 11.2531 13.9439 11.87 13.9439 12.5507C13.9439 13.2314 13.6876 13.8476 13.2732 14.2939C12.8591 14.7402 12.2863 15.0166 11.6542 15.0166C11.0221 15.0166 10.4496 14.7402 10.0352 14.2939C9.62079 13.8476 9.36448 13.2314 9.36448 12.5507C9.36448 11.87 9.62079 11.2531 10.0352 10.8068C10.4496 10.3606 11.0221 10.0848 11.6542 10.0848ZM68.8443 0.138759C68.8443 5.6796 68.8443 11.2207 68.8443 16.7622C67.6951 16.7622 66.5462 16.7622 65.3971 16.7622C65.3971 11.2207 65.3971 5.6796 65.3971 0.138759C66.5462 0.138759 67.6954 0.138759 68.8443 0.138759ZM120.388 13.3268C120.388 14.2734 120.031 15.1315 119.455 15.7531C118.878 16.3747 118.082 16.7595 117.202 16.7613C116.748 16.7613 116.199 16.7931 115.749 16.7039C115.57 16.6686 115.395 16.6145 115.244 16.5373C115.072 16.4496 114.926 16.3456 114.793 16.2256C114.663 16.1073 114.55 15.9766 114.44 15.8304L105.424 3.84038C105.415 3.8276 105.402 3.81691 105.388 3.80948C105.364 3.797 105.341 3.79908 105.314 3.79908C105.285 3.79908 105.258 3.81156 105.239 3.83206C105.208 3.86504 105.209 3.8897 105.209 3.92655V16.7622C104.06 16.7622 102.911 16.7622 101.762 16.7622V3.57415C101.762 2.62721 102.118 1.7694 102.695 1.14751C103.271 0.525917 104.067 0.140839 104.947 0.13965C105.428 0.13965 105.987 0.102509 106.46 0.212447C106.822 0.296237 107.106 0.440344 107.385 0.700628C107.498 0.806405 107.599 0.923474 107.696 1.05302L116.704 13.0326C116.725 13.06 116.744 13.0808 116.761 13.0918C116.781 13.1039 116.812 13.1016 116.835 13.1016C116.895 13.1016 116.94 13.0522 116.94 12.9878V12.6966V0.138759C118.09 0.138759 119.239 0.138759 120.388 0.138759V13.3268H120.388ZM61.7825 13.3268C61.7825 14.2734 61.426 15.1315 60.8496 15.7531C60.2736 16.3747 59.477 16.7595 58.5966 16.7613C58.1425 16.7613 57.594 16.7931 57.144 16.7039C56.9649 16.6686 56.7892 16.6145 56.6388 16.5373C56.4669 16.4496 56.3209 16.3456 56.1882 16.2256C56.058 16.1073 55.9446 15.9766 55.8345 15.8304L46.8188 3.84038C46.8091 3.8276 46.7967 3.81691 46.7826 3.80948C46.7581 3.797 46.7352 3.79908 46.709 3.79908C46.6795 3.79908 46.6527 3.81156 46.6339 3.83206C46.603 3.86504 46.6039 3.8897 46.6039 3.92655V16.7622C45.4547 16.7622 44.3056 16.7622 43.1564 16.7622V3.57415C43.1564 2.62721 43.5129 1.7694 44.0893 1.14751C44.6656 0.525917 45.4622 0.140839 46.3423 0.13965C46.8227 0.13965 47.3811 0.102509 47.8543 0.212447C48.2163 0.296237 48.501 0.440344 48.7791 0.700628C48.8922 0.806405 48.9932 0.923474 49.0906 1.05302L58.0986 13.0326C58.1193 13.06 58.1386 13.0808 58.156 13.0918C58.1759 13.1039 58.2068 13.1016 58.2297 13.1016C58.2895 13.1016 58.3353 13.0522 58.3353 12.9878V12.6966V0.138759C59.4845 0.138759 60.6336 0.138759 61.7827 0.138759V13.3268H61.7825ZM127.45 6.62179H142.629C142.629 7.84091 142.629 9.05973 142.629 10.2788H127.45C127.45 10.7958 127.449 11.3134 127.449 11.8307C127.449 12.5346 127.98 13.1051 128.633 13.1051H142.629C142.629 14.3239 142.629 15.5431 142.629 16.7625H128.633C127.354 16.7625 126.197 16.2042 125.359 15.3018C124.521 14.3988 124.003 13.1524 124.003 11.7752V5.12546C124.003 3.74827 124.521 2.50152 125.359 1.59914C126.197 0.696468 127.354 0.138165 128.633 0.138165H142.629C142.629 1.35728 142.629 2.5764 142.629 3.79551H128.633C127.98 3.79551 127.449 4.3654 127.449 5.0696C127.449 5.58422 127.45 6.10568 127.45 6.62179ZM75.9055 11.8304C75.9055 12.5343 76.4363 13.1048 77.0897 13.1048H86.4541C87.1075 13.1048 87.6383 12.5343 87.6386 11.8304C87.6383 11.3164 87.6375 10.7947 87.6375 10.2785H79.1992C79.1992 9.05913 79.1992 7.84061 79.1992 6.6215C83.1609 6.6215 87.1232 6.6215 91.0849 6.6215C91.0849 8.33919 91.0849 10.0569 91.0849 11.7746C91.0849 13.1518 90.5665 14.3982 89.7286 15.3012C88.8906 16.2036 87.7329 16.7619 86.4541 16.7619H77.0897C75.8111 16.7619 74.6534 16.2036 73.8152 15.3012C72.9773 14.3982 72.4589 13.1518 72.4589 11.7746V5.12546C72.4589 3.74827 72.9773 2.50152 73.8152 1.59914C74.6534 0.696468 75.8108 0.138165 77.0897 0.138165H91.0852C91.0852 1.35728 91.0852 2.5764 91.0852 3.79551H77.0897C76.4363 3.79551 75.9055 4.3654 75.9055 5.0696C75.9074 7.32094 75.9063 9.58178 75.9055 11.8304ZM25.5466 13.1048H34.911C35.238 13.1048 35.5337 12.9622 35.7478 12.7316H35.7487C36.0985 12.3549 36.0947 12.0046 36.0944 11.5315C36.0944 7.73394 36.0944 3.93605 36.0944 0.138462C37.2435 0.138462 38.3929 0.138462 39.5418 0.138462V11.7746C39.5418 13.1518 39.0237 14.3982 38.1855 15.3012C37.3475 16.2036 36.1898 16.7619 34.911 16.7619H25.5466C24.268 16.7619 23.11 16.2036 22.2721 15.3012C21.4339 14.3982 20.9158 13.1518 20.9158 11.7746V0.138759C22.0649 0.138759 23.2141 0.138759 24.3629 0.138759C24.3629 3.92536 24.3629 7.71225 24.3629 11.4986C24.3629 11.9668 24.34 12.3347 24.7086 12.7316H24.7095C24.9241 12.9622 25.2199 13.1048 25.5466 13.1048Z" fill="#E9EAEC"/>
</svg>
