<svg width="24" height="24" viewBox="0 0 24 24" fill="none" xmlns="http://www.w3.org/2000/svg">
<path d="M9.1016 14.8984C9.90369 15.7005 10.8698 16.1016 12 16.1016C13.1302 16.1016 14.0964 15.7005 14.8985 14.8984C15.7006 14.0964 16.1016 13.1302 16.1016 12C16.1016 10.8698 15.7006 9.90365 14.8985 9.10156C14.0964 8.29948 13.1302 7.89844 12 7.89844C10.8698 7.89844 9.90369 8.29948 9.1016 9.10156C8.29952 9.90365 7.89848 10.8698 7.89848 12C7.89848 13.1302 8.29952 14.0964 9.1016 14.8984ZM20.6954 13.1484L23.1563 15.0625C23.4115 15.2448 23.448 15.5 23.2657 15.8281L20.9141 19.875C20.7683 20.1302 20.5313 20.2031 20.2032 20.0938L17.3047 18.9453C16.5391 19.4922 15.8829 19.875 15.336 20.0938L14.8985 23.1562C14.8256 23.4844 14.6433 23.6484 14.3516 23.6484H9.64848C9.35681 23.6484 9.17452 23.4844 9.1016 23.1562L8.6641 20.0938C7.9714 19.8021 7.31515 19.4193 6.69535 18.9453L3.79692 20.0938C3.46879 20.2031 3.23181 20.1302 3.08598 19.875L0.734416 15.8281C0.552124 15.5 0.588582 15.2448 0.843791 15.0625L3.30473 13.1484C3.26827 12.8932 3.25004 12.5104 3.25004 12C3.25004 11.4896 3.26827 11.1068 3.30473 10.8516L0.843791 8.9375C0.588582 8.75521 0.552124 8.5 0.734416 8.17187L3.08598 4.125C3.23181 3.86979 3.46879 3.79688 3.79692 3.90625L6.69535 5.05469C7.46098 4.50781 8.11723 4.125 8.6641 3.90625L9.1016 0.84375C9.17452 0.515625 9.35681 0.351562 9.64848 0.351562H14.3516C14.6433 0.351562 14.8256 0.515625 14.8985 0.84375L15.336 3.90625C16.0287 4.19792 16.6849 4.58073 17.3047 5.05469L20.2032 3.90625C20.5313 3.79688 20.7683 3.86979 20.9141 4.125L23.2657 8.17187C23.448 8.5 23.4115 8.75521 23.1563 8.9375L20.6954 10.8516C20.7318 11.1068 20.75 11.4896 20.75 12C20.75 12.5104 20.7318 12.8932 20.6954 13.1484Z" fill="#B3B5BD"/>
</svg>
